<?xml version="1.0" encoding="UTF-8" standalone="no"?>
<svg
   xmlns:dc="http://purl.org/dc/elements/1.1/"
   xmlns:cc="http://creativecommons.org/ns#"
   xmlns:rdf="http://www.w3.org/1999/02/22-rdf-syntax-ns#"
   xmlns:svg="http://www.w3.org/2000/svg"
   xmlns="http://www.w3.org/2000/svg"
   xmlns:sodipodi="http://sodipodi.sourceforge.net/DTD/sodipodi-0.dtd"
   xmlns:inkscape="http://www.inkscape.org/namespaces/inkscape"
   version="1.1"
   id="Layer_1"
   x="0px"
   y="0px"
   width="149.167px"
   height="172.243px"
   viewBox="0 0 149.167 172.243"
   enable-background="new 0 0 149.167 172.243"
   xml:space="preserve"
   sodipodi:docname="logo.svg"
   inkscape:version="0.92.4 (5da689c313, 2019-01-14)"><metadata
   id="metadata11"><rdf:RDF><cc:Work
       rdf:about=""><dc:format>image/svg+xml</dc:format><dc:type
         rdf:resource="http://purl.org/dc/dcmitype/StillImage" /></cc:Work></rdf:RDF></metadata><defs
   id="defs9" /><sodipodi:namedview
   pagecolor="#ffffff"
   bordercolor="#666666"
   borderopacity="1"
   objecttolerance="10"
   gridtolerance="10"
   guidetolerance="10"
   inkscape:pageopacity="0"
   inkscape:pageshadow="2"
   inkscape:window-width="3200"
   inkscape:window-height="1690"
   id="namedview7"
   showgrid="false"
   inkscape:zoom="7.7507802"
   inkscape:cx="74.583504"
   inkscape:cy="86.121498"
   inkscape:window-x="-12"
   inkscape:window-y="-12"
   inkscape:window-maximized="1"
   inkscape:current-layer="Layer_1" />
<polygon
   fill="#585858"
   points="149.167,129.183 74.583,172.243 0,129.183 0,43.061 74.583,0 149.167,43.061 "
   id="polygon2" />

<g
   id="g162"
   transform="matrix(0.16606919,0,0,0.16606919,27.881915,48.500303)"
   style="fill:#ffffff;fill-opacity:1"><path
     id="path148"
     d="M 509.78516,15.433594 C 509.01172,8.460938 503.50781,2.953125 496.53125,2.179688 377.82812,-11.003906 276.64062,36.480469 194.10156,121.44531 170.48047,145.76172 149.99219,171.5 132.50391,196.33984 102.90625,195.13672 70.089844,208.52734 46.824219,231.79297 L 4.394531,274.22266 c -4.800781,4.80078 -5.777343,12.23046 -2.382812,18.10937 3.394531,5.87891 10.3125,8.74219 16.875,6.98828 9.84375,-2.64453 25.839843,-5.71875 41.207031,-6.43359 5.617188,-0.26172 10.285156,-0.17969 14.164062,0.11719 -9.363281,18.00781 -16.539062,33.09375 -18.917968,36.87109 -3.726563,5.92969 -2.863282,13.64453 2.089844,18.59766 l 24.550781,24.55078 C 46.25,421.75391 45.660156,446.71094 45.785156,450.24609 c 0.261719,7.48829 6.101563,14.50391 15.773438,14.50391 8.375,0 32.394531,-3.55469 76.121096,-36.02734 l 25.82422,25.82422 c 4.98828,4.98828 12.78125,5.82421 18.71875,2.01171 4.03906,-2.59765 18.23828,-9.47265 35.26562,-18.37109 0.28125,12.69141 -1.44141,31.32813 -5.17969,56.58984 -2.125,14.32813 15.29297,22.95313 25.44532,12.80469 l 42.42968,-42.42969 c 21.87891,-21.8789 34.56641,-54.375 33.62891,-84.85937 26.16797,-18.28516 53.39062,-39.85547 78.80859,-64.78125 C 476.77734,232.98438 522.80078,132.5625 509.78516,15.433594 Z m -28.69532,15.4375 c 2.39453,32.34375 -0.16015,63.695312 -7.60156,94.035156 C 455.00781,119.08594 436.94141,107.65234 420.625,91.339844 404.25,74.960938 392.79297,56.820312 386.99609,38.273438 c 30.32813,-7.332032 61.69922,-9.816407 94.09375,-7.402344 z M 58.136719,262.91016 l 9.898437,-9.90235 c 11.972656,-11.96875 27.542969,-20.58984 43.027344,-24.46484 -8.08984,12.83984 -15.300781,25.10156 -21.660156,36.41797 -9.824219,-2.16797 -20.746094,-2.57031 -31.265625,-2.05078 z m 28.386719,72.23046 c 3.246093,-6.40625 7.171874,-14.4375 14.378902,-28.05468 l 19.7461,19.75 c -7.34766,7.88281 -13.98047,15.37109 -19.95703,22.46875 z m 73.355472,-5.73828 c 10.92968,-10.92578 21.41015,-12.92187 34.42968,-13.20312 -0.28515,12.6875 -2.32031,23.52344 -13.21484,34.41797 -46.57031,46.57031 -78.49219,67.36719 -97.582031,76.64844 C 92.929688,407.80859 113.78125,375.5 159.87891,329.40234 Z M 176.75,425.36719 161.28125,409.89453 c 7.0625,-6 14.52734,-12.65234 22.40234,-20.02734 l 21.01953,21.01953 c -13.82031,7.37891 -19.58593,10.15625 -27.95312,14.48047 z m 82.21484,18.57031 -12.00781,12.01172 c 0.97266,-14.55078 0.63672,-25.15234 -0.73828,-33.33203 11.03125,-6.21094 23.01172,-13.25391 35.56641,-21.13281 -3.57813,15.85937 -11.6211,31.25781 -22.82032,42.45312 z m -26.95312,-48.16797 -26.89453,-26.89844 c 19.90234,-21.89843 19.16015,-43 19.16015,-67.65234 0,-8.28516 -6.71484,-15 -15,-15 -23.03125,0 -45.19531,-1.23438 -67.65234,19.16406 L 115.94141,279.69922 C 186.07422,156.71875 267.14062,78.859375 358.22266,46.796875 c 7.21093,23.332031 21.24609,45.8125 41.1914,65.757815 19.85156,19.85547 42.22656,33.85547 65.45703,41.09375 -32.25,90.58203 -110.08984,171.59765 -232.85937,242.12109 z m 0,0"
     inkscape:connector-curvature="0"
     style="fill:#ffffff;fill-opacity:1" /><path
     id="path150"
     d="m 378.19922,133.76562 c -29.2461,-29.24218 -76.83203,-29.24218 -106.07422,0 -29.24219,29.2461 -29.24219,76.83204 0,106.07422 29.24219,29.24219 76.82812,29.2461 106.07422,0 29.24219,-29.24218 29.24219,-76.82812 0,-106.07422 z M 356.98437,218.625 c -17.54687,17.54687 -46.10156,17.54687 -63.64453,0 -17.54687,-17.54688 -17.54687,-46.09766 0,-63.64453 17.54297,-17.54297 46.09375,-17.54688 63.64453,0 17.54688,17.54687 17.54688,46.09765 0,63.64453 z m 0,0"
     inkscape:connector-curvature="0"
     style="fill:#ffffff;fill-opacity:1" /></g></svg>